HIERARCHY
ROOT Root
{
	OFFSET 0.00 0.00 0.00
	CHANNELS 6 Xposition Yposition Zposition Xrotation Yrotation Zrotation
	JOINT L_Femur
	{
		OFFSET 2.78527 0.00000 0.00000
		CHANNELS 3 Xrotation Yrotation Zrotation
		JOINT L_Tibia
		{
			OFFSET 0.00000 -16.41095 0.00000
			CHANNELS 3 Xrotation Yrotation Zrotation
			JOINT L_Foot
			{
				OFFSET 0.00000 -14.21163 0.00000
				CHANNELS 3 Xrotation Yrotation Zrotation
				JOINT L_Toe
				{
					OFFSET 0.00000 -1.60827 6.00215
					CHANNELS 3 Xrotation Yrotation Zrotation
					End Site
					{
						OFFSET 0.00000 0.00000 2.95275
					}
				}
			}
		}
	}
	JOINT R_Femur
	{
		OFFSET -2.78527 0.00000 0.00000
		CHANNELS 3 Xrotation Yrotation Zrotation
		JOINT R_Tibia
		{
			OFFSET 0.00000 -16.41095 0.00000
			CHANNELS 3 Xrotation Yrotation Zrotation
			JOINT R_Foot
			{
				OFFSET 0.00000 -14.21163 0.00000
				CHANNELS 3 Xrotation Yrotation Zrotation
				JOINT R_Toe
				{
					OFFSET 0.00000 -1.60827 6.00215
					CHANNELS 3 Xrotation Yrotation Zrotation
					End Site
					{
						OFFSET 0.00000 0.00000 2.95275
					}
				}
			}
		}
	}
	JOINT LowerBack
	{
		OFFSET 0.00000 0.03937 0.00000
		CHANNELS 3 Xrotation Yrotation Zrotation
		JOINT Thorax
		{
			OFFSET 0.00000 7.01329 0.00000
			CHANNELS 3 Xrotation Yrotation Zrotation
			JOINT Neck
			{
				OFFSET 0.00000 7.25825 0.00000
				CHANNELS 3 Xrotation Yrotation Zrotation
				JOINT Head
				{
					OFFSET 0.00000 5.63334 0.00000
					CHANNELS 3 Xrotation Yrotation Zrotation
					End Site
					{
						OFFSET 0.00000 4.52755 0.00000
					}
				}
			}
			JOINT L_Collar
			{
				OFFSET 0.00000 7.25825 0.00000
				CHANNELS 3 Xrotation Yrotation Zrotation
				JOINT L_Humerus
				{
					OFFSET 6.91821 -0.00003 0.00000
					CHANNELS 3 Xrotation Yrotation Zrotation
					JOINT L_Elbow
					{
						OFFSET 10.34006 -0.00004 0.00000
						CHANNELS 3 Xrotation Yrotation Zrotation
						JOINT L_Wrist
						{
							OFFSET 7.25554 -0.00003 0.00000
							CHANNELS 3 Xrotation Yrotation Zrotation
							JOINT L_Thumb
							{
								OFFSET 0.00000 0.00000 0.00000
								CHANNELS 3 Xrotation Yrotation Zrotation
								End Site
								{
									OFFSET 0.00000 0.00000 3.93700
								}
							}
							JOINT L_Wrist_End
							{
								OFFSET 3.93700 -0.00001 0.00000
								CHANNELS 3 Xrotation Yrotation Zrotation
							}
						}
					}
				}
			}
			JOINT R_Collar
			{
				OFFSET 0.00000 7.25825 0.00000
				CHANNELS 3 Xrotation Yrotation Zrotation
				JOINT R_Humerus
				{
					OFFSET -6.91821 -0.00003 0.00000
					CHANNELS 3 Xrotation Yrotation Zrotation
					JOINT R_Elbow
					{
						OFFSET -10.34006 -0.00004 0.00000
						CHANNELS 3 Xrotation Yrotation Zrotation
						JOINT R_Wrist
						{
							OFFSET -7.25554 -0.00003 0.00000
							CHANNELS 3 Xrotation Yrotation Zrotation
							JOINT R_Thumb
							{
								OFFSET 0.00000 0.00000 0.00000
								CHANNELS 3 Xrotation Yrotation Zrotation
								End Site
								{
									OFFSET 0.00000 0.00000 3.93700
								}
							}
							JOINT R_Wrist_End
							{
								OFFSET -5.39369 -0.00002 0.00000
								CHANNELS 3 Xrotation Yrotation Zrotation
							}
						}
					}
				}
			}
		}
	}
}
MOTION
Frames: 19
Frame Time: 0.066664
 48.7863 29.8205 -59.1302 155.2438 -47.2834 161.8692 4.8700 19.6230 11.8522 25.4735 -0.0000 0.0000 -5.7963 -4.2998 3.3176 -10.0538 -0.0000 -0.0000 -49.6092 8.5296 -5.3427 36.6296 -0.0000 0.0000 -5.3052 3.5086 8.9638 -10.9722 0.0000 0.0000 -5.8575 -4.5525 -9.6713 8.4933 -3.4904 13.1271 5.4444 -36.7917 11.8184 13.5712 54.1652 -12.1639 6.5302 21.2120 9.6954 4.0326 -34.8721 -79.1634 -0.0001 -21.7364 -0.0000 -19.7373 1.8809 -7.5471 -0.0000 0.0000 -0.0000 -0.0000 0.0000 -0.0000 9.9473 -11.9153 -8.3629 0.0860 9.9433 73.3509 -0.0006 69.1611 0.0004 -4.5850 8.7548 -9.0424 -0.0000 0.0000 -0.0000 -0.0000 0.0000 -0.0000
 47.4002 29.9979 -61.0473 153.7236 -45.6508 159.3560 -1.3306 18.7600 10.1144 39.6608 0.0000 -0.0000 -12.5373 -2.7322 4.0570 -8.5555 -0.0000 0.0000 -49.2426 1.5707 -4.6083 40.1661 -0.0000 0.0000 -9.7901 8.9260 11.1067 -9.6381 0.0000 -0.0000 -5.1361 -4.0466 -9.7133 10.7208 -2.3564 16.8394 5.6349 -28.9688 13.3442 19.8984 55.5068 -19.1496 6.4307 19.7010 8.9258 -2.6345 -37.5692 -85.5007 -0.0001 -20.0700 -0.0000 -20.9970 1.3469 -6.2343 -0.0000 0.0000 -0.0000 -0.0000 0.0000 -0.0000 11.0824 -9.9484 -5.9926 -7.7078 8.0453 70.7242 -0.0003 58.4575 0.0002 -0.0350 6.7603 -10.3527 -0.0000 0.0000 -0.0000 -0.0000 0.0000 -0.0000
 46.3677 30.9059 -62.2615 151.3562 -44.0988 156.8361 -11.0676 19.6015 6.4105 49.2802 -0.0000 0.0000 -17.5294 -12.8927 -2.4656 -9.0221 0.0000 -0.0000 -45.5002 4.3416 -2.0769 34.6723 -0.0000 0.0000 -8.8070 5.9550 9.5157 -9.6150 0.0000 -0.0000 -4.4201 -2.9593 -9.4073 12.1162 -0.9818 18.9612 4.8358 -24.3408 13.7248 25.4299 53.4815 -23.6001 5.8362 19.1171 8.5929 -11.1554 -44.7520 -89.4114 -0.0001 -30.6503 -0.0000 -15.6669 2.7532 -5.2073 -0.0000 0.0000 -0.0000 -0.0000 0.0000 -0.0000 10.9078 -7.9599 -6.5516 -12.3646 8.6613 72.0137 -0.0003 55.6743 0.0002 1.3216 6.3440 -10.8094 -0.0000 0.0000 -0.0000 -0.0000 0.0000 -0.0000
 45.2126 31.6159 -63.3550 148.8267 -46.3995 154.3940 -17.3460 28.3271 4.5044 48.4951 -0.0000 0.0000 -23.0544 -7.7930 -0.3065 -8.8158 0.0000 -0.0000 -40.8639 6.2722 -2.7944 30.9098 -0.0000 0.0000 -8.4390 3.7506 10.2182 -9.5737 -0.0000 0.0000 -4.2662 -2.8506 -9.4924 13.3588 -0.4482 20.6017 4.6354 -22.7496 14.6955 27.9435 50.1680 -26.2074 5.2645 18.4940 8.3573 -18.3117 -46.7031 -91.9606 -0.0002 -47.7874 -0.0001 -18.5639 0.1599 -3.3477 -0.0000 0.0000 -0.0000 -0.0000 0.0000 -0.0000 10.2727 -7.2447 -7.3108 -12.1148 13.4917 71.3089 -0.0003 58.5798 0.0002 -3.1611 8.2243 -9.2892 -0.0000 0.0000 -0.0000 -0.0000 0.0000 -0.0000
 44.0964 31.8225 -64.3762 145.3623 -50.1438 150.5993 -21.6122 30.1658 3.2617 40.2011 -0.0000 0.0000 -25.8499 -9.4314 -1.2815 -9.1213 0.0000 -0.0000 -37.6286 3.3604 -4.3506 30.8683 -0.0000 0.0000 -11.2348 3.4655 10.8488 -9.7911 0.0000 -0.0000 -3.9677 -2.8645 -9.5766 13.1605 -0.1738 22.0533 4.1610 -21.6763 15.0604 25.8657 47.6698 -24.7801 4.6125 17.9040 8.4431 -24.7935 -44.5562 -96.1540 -0.0004 -62.5822 -0.0002 -29.7483 -2.0909 -4.9063 -0.0000 0.0000 -0.0000 -0.0000 0.0000 -0.0000 10.0587 -7.0064 -7.6162 -10.9515 17.2133 69.7768 -0.0004 62.5358 0.0002 -3.3799 8.2591 -9.2206 -0.0000 0.0000 -0.0000 -0.0000 0.0000 -0.0000
 42.9892 31.7823 -65.2230 142.5354 -51.7866 147.2848 -26.5372 28.6369 3.5938 30.5837 0.0000 0.0000 -27.9036 -7.0942 0.6613 -9.3591 0.0000 -0.0000 -35.5077 -1.6528 -4.8919 31.0584 -0.0000 0.0000 -14.9351 4.2612 9.4206 -9.2324 0.0000 -0.0000 -3.8933 -2.4683 -10.0118 11.9958 0.3363 23.6269 2.9221 -19.6475 14.1032 25.9358 46.2419 -23.6133 4.6220 18.2844 7.2342 -29.9684 -42.9017 -100.3630 -0.0007 -72.3391 -0.0005 -31.9612 -3.1787 -4.9813 -0.0000 0.0000 -0.0000 -0.0000 0.0000 -0.0000 10.2367 -6.0292 -8.2941 -11.9990 19.0632 69.1947 -0.0004 62.4767 0.0002 -3.9781 8.6890 -9.2915 -0.0000 0.0000 -0.0000 -0.0000 0.0000 -0.0000
 41.8178 31.7182 -65.8559 141.0413 -52.9737 145.2841 -33.1898 27.1174 5.9036 32.0493 -0.0000 0.0000 -28.0418 -5.0411 2.8666 -9.1124 -0.0000 0.0000 -33.5645 -4.6129 -5.6280 32.2283 -0.0000 0.0000 -17.4676 5.5122 9.9650 -9.1515 -0.0000 0.0000 -3.6243 -2.2267 -10.5094 11.3510 0.5611 24.1652 2.2950 -17.9026 14.2718 27.6800 45.3186 -24.3798 4.3151 18.2567 6.5695 -31.8153 -43.1972 -102.4199 -0.0008 -75.8171 -0.0006 -31.3932 -3.2810 -4.6314 -0.0000 0.0000 -0.0000 -0.0000 0.0000 -0.0000 9.8590 -4.9606 -8.2355 -13.8989 19.6318 69.1362 -0.0004 61.2628 0.0002 -1.3321 7.5695 -9.6020 -0.0000 -0.0000 0.0000 -0.0000 -0.0000 0.0000
 40.4577 31.5675 -66.3452 139.0500 -54.7756 142.6945 -39.2463 28.3668 9.0938 34.5916 -0.0000 0.0000 -26.3208 -8.8965 0.7570 -9.2953 0.0000 0.0000 -31.3083 -7.2864 -6.6923 33.7095 -0.0000 0.0000 -20.1897 6.2597 10.0971 -9.4922 -0.0000 0.0000 -3.9476 -2.3022 -10.7739 11.6015 0.3030 24.2501 1.8473 -16.7651 14.1788 28.3486 44.3082 -23.7605 4.4012 18.0973 6.0666 -31.8235 -46.9257 -101.2641 -0.0008 -74.8322 -0.0006 -29.6033 -2.9621 -5.1109 -0.0000 0.0000 -0.0000 -0.0000 0.0000 -0.0000 9.7387 -5.1968 -8.6147 -15.1405 18.2021 70.1648 -0.0004 62.6018 0.0002 -2.8759 8.0753 -9.5552 -0.0000 0.0000 -0.0000 -0.0000 0.0000 -0.0000
 38.7660 31.1542 -66.6771 137.0775 -56.4952 140.2874 -45.1260 28.0743 12.1836 39.8459 -0.0000 0.0000 -26.6881 -7.0635 1.9412 -8.6014 -0.0000 -0.0000 -28.5524 -7.1066 -7.6398 35.9494 -0.0000 0.0000 -23.9145 4.6003 11.0251 -9.9545 -0.0000 0.0000 -4.1980 -2.5823 -11.0802 11.0441 -0.2337 24.0236 1.5684 -16.1813 13.9200 28.2540 43.1449 -23.3037 4.8210 18.8154 5.5547 -27.2710 -49.7301 -97.3189 -0.0008 -74.8799 -0.0006 -26.6239 -1.7773 -5.7637 -0.0000 0.0000 -0.0000 -0.0000 0.0000 -0.0000 9.5552 -6.0961 -8.9156 -12.8193 17.0029 68.9856 -0.0005 65.7066 0.0003 -4.0302 8.4880 -9.4095 -0.0000 0.0000 -0.0000 -0.0000 0.0000 -0.0000
 36.7628 30.6573 -66.8555 135.0577 -57.9821 137.7804 -52.9785 28.2945 17.0571 43.2347 -0.0000 0.0000 -24.5486 -8.2350 0.1647 -8.6876 -0.0000 -0.0000 -24.5414 -7.5175 -8.7849 36.2483 -0.0000 0.0000 -27.1311 3.4670 12.0096 -10.0098 0.0000 -0.0000 -4.3302 -2.6676 -11.2222 9.9161 -0.7577 23.0793 1.0564 -15.8398 12.7768 25.9517 43.0224 -20.9730 5.5732 20.3252 5.0941 -19.6619 -50.1848 -90.8233 -0.0009 -76.6006 -0.0007 -29.5885 -2.2889 -6.0640 -0.0000 0.0000 -0.0000 -0.0000 0.0000 -0.0000 9.6813 -7.2230 -9.7966 -9.0246 15.3172 67.6046 -0.0005 66.5485 0.0003 -4.1980 8.5987 -9.4711 -0.0000 0.0000 -0.0000 -0.0000 0.0000 -0.0000
 34.1917 30.6101 -66.7071 135.9023 -57.2053 138.2599 -59.8945 27.6250 22.9469 39.1526 0.0000 0.0000 -18.7290 -9.4650 -0.2758 -8.8308 0.0000 0.0000 -18.9617 -4.9310 -9.7729 32.6280 -0.0000 0.0000 -24.2694 1.7622 13.7305 -11.1045 0.0000 0.0000 -5.1379 -1.9212 -10.6322 8.7128 -0.8468 20.7487 0.7547 -15.2874 10.9455 25.8132 43.3532 -19.6787 6.1877 22.7349 5.0316 -11.5596 -46.8122 -85.6316 -0.0010 -78.0146 -0.0008 -30.8542 -2.2366 -6.4214 -0.0000 0.0000 -0.0000 -0.0000 0.0000 -0.0000 9.4045 -7.5118 -11.6639 -4.0150 14.4616 67.1795 -0.0004 64.0093 0.0003 -3.4322 8.2108 -9.7156 -0.0000 -0.0000 0.0000 -0.0000 -0.0000 0.0000
 30.6825 31.0673 -66.1877 142.1192 -55.3927 144.2860 -57.8447 25.5013 26.8436 26.8012 -0.0000 0.0000 -17.1119 -11.0602 -0.8035 -9.2003 0.0000 0.0000 -10.6696 -0.7306 -12.2225 26.5230 -0.0000 -0.0000 -13.1096 -0.7936 14.3050 -14.5785 0.0000 0.0000 -5.7875 -0.9111 -9.1785 7.9697 -0.7834 16.4361 0.4116 -13.6959 10.7484 31.0114 41.0274 -21.5551 6.1373 25.2388 5.9952 -3.9735 -41.5973 -84.2760 -0.0010 -78.5704 -0.0009 -32.6585 -2.3553 -6.6230 -0.0000 0.0000 -0.0000 -0.0000 0.0000 -0.0000 9.1436 -8.0065 -11.7970 0.1680 15.3316 66.1293 -0.0004 61.4442 0.0002 -0.7432 6.9407 -9.0911 -0.0000 0.0000 -0.0000 -0.0000 0.0000 -0.0000
 26.5370 31.2259 -65.3175 150.6556 -53.1338 154.0368 -50.5227 26.6571 28.4532 16.2161 0.0000 0.0000 -17.0999 -8.3571 2.5869 -9.3221 0.0000 -0.0000 -1.9643 2.1902 -18.0274 21.5574 -0.0000 -0.0000 0.5428 -4.8340 15.6204 -16.7608 0.0000 -0.0000 -6.2841 0.0482 -8.2159 9.0979 -0.2811 10.9086 -0.3821 -12.6293 10.1243 33.5089 40.1315 -21.6031 6.1629 26.9319 7.4523 0.4799 -37.4298 -85.1592 -0.0011 -79.4902 -0.0009 -32.9356 -2.7998 -6.7597 -0.0000 0.0000 -0.0000 -0.0000 0.0000 -0.0000 8.1806 -8.1614 -12.5150 1.6463 14.1645 67.4070 -0.0004 59.7048 0.0002 -5.0892 8.6984 -8.3648 -0.0000 0.0000 -0.0000 -0.0000 0.0000 -0.0000
 22.6413 30.3565 -64.2775 152.4148 -50.7483 155.8228 -51.9365 27.1411 31.1097 21.1408 0.0000 0.0000 -8.1959 -10.9814 -10.9616 -10.4375 0.0000 -0.0000 -1.3522 -1.1643 -21.1978 23.2577 -0.0000 0.0000 7.3254 -13.2199 17.6608 -13.0104 0.0000 0.0000 -6.4386 0.0279 -8.3714 7.7745 -0.4237 9.9621 -1.4689 -13.3547 8.9120 31.0873 41.4266 -20.1090 6.2297 28.1443 8.0369 1.6009 -36.1587 -86.0630 -0.0013 -80.5263 -0.0011 -34.6637 -3.1458 -7.3758 -0.0000 0.0000 -0.0000 -0.0000 0.0000 -0.0000 7.8988 -8.0501 -13.7544 1.4136 14.0989 66.0954 -0.0004 60.0834 0.0002 -5.2212 8.5865 -7.9570 -0.0000 0.0000 -0.0000 -0.0000 0.0000 -0.0000
 19.6149 29.6301 -63.3290 149.1346 -55.0902 154.4778 -54.3957 24.2365 26.6576 38.7596 -0.0000 0.0000 -8.6181 -13.5522 -7.5590 -8.9816 0.0000 0.0000 -2.4106 -2.4765 -20.4500 31.8291 -0.0000 0.0000 -5.8473 -16.5068 9.1792 -10.0467 0.0000 0.0000 -5.2480 -0.5524 -8.9191 7.9694 -0.8364 6.7468 0.0937 -17.5350 7.0585 20.9061 42.1713 -13.3213 5.9742 24.1858 5.1880 -5.7810 -39.9372 -80.4276 -0.0008 -74.9118 -0.0006 -36.9205 -4.3683 -7.2602 -0.0000 0.0000 -0.0000 -0.0000 0.0000 -0.0000 9.2438 -8.5505 -12.0112 -5.7878 7.7918 70.6922 -0.0003 56.2182 0.0002 -2.3041 7.9046 -10.1061 -0.0000 0.0000 -0.0000 -0.0000 0.0000 -0.0000
 17.2778 30.0760 -62.9406 146.3314 -56.8394 152.4820 -50.0574 25.3227 22.1933 39.5225 0.0000 0.0000 -13.0283 -13.3316 -7.5153 -7.5759 0.0000 -0.0000 -6.2447 2.2323 -13.1196 36.2000 -0.0000 0.0000 -23.9131 -9.8467 3.6589 -10.9338 0.0000 0.0000 -4.5393 -0.6555 -9.5557 8.1417 -0.5432 5.5388 -0.0999 -22.2871 5.4467 22.2159 42.2941 -13.5479 4.8990 22.6487 3.5111 -18.2758 -43.7289 -80.0621 -0.0006 -69.3866 -0.0004 -32.3006 -3.0522 -8.0129 -0.0000 0.0000 -0.0000 -0.0000 0.0000 -0.0000 8.5838 -6.5855 -12.1758 -10.4612 10.0491 76.4164 -0.0002 49.1226 0.0001 -0.5728 7.0247 -11.3259 -0.0000 0.0000 -0.0000 -0.0000 0.0000 -0.0000
 15.4101 30.9325 -62.8313 140.4764 -58.8296 147.8801 -42.9897 25.0323 15.5049 32.4725 0.0000 0.0000 -13.2146 -12.5360 -7.0137 -7.6057 0.0000 0.0000 -14.6788 5.4035 -4.8581 36.4379 0.0000 0.0000 -30.5324 -7.1935 0.3581 -11.3030 0.0000 0.0000 -4.3135 -1.2874 -10.1383 8.6192 -0.7705 4.4561 0.2905 -27.5883 5.4476 20.9038 44.4867 -13.4193 2.6236 20.2198 5.9827 -30.4675 -41.9532 -86.2339 -0.0006 -70.1996 -0.0004 -33.3186 -3.7158 -8.4496 -0.0000 0.0000 -0.0000 -0.0000 0.0000 -0.0000 8.0713 -5.7133 -12.3432 -11.4443 19.2427 78.6332 -0.0003 52.2663 0.0001 6.3322 3.5900 -9.3604 -0.0000 0.0000 -0.0000 -0.0000 0.0000 -0.0000
 13.4482 31.3857 -62.8942 139.2526 -58.7729 147.4618 -36.3408 22.9440 11.1092 28.7253 -0.0000 0.0000 -15.0257 -8.8657 -6.5769 -7.3830 0.0000 -0.0000 -23.7666 7.0615 0.8146 37.2226 -0.0000 0.0000 -33.1582 -11.3052 -6.7182 -11.2267 -0.0000 0.0000 -4.0567 -1.6071 -10.1331 8.4580 -0.9955 4.1101 -0.3141 -28.7899 4.5552 22.3859 45.8352 -14.4091 1.9348 19.8513 5.7683 -38.2707 -41.4234 -88.8127 -0.0006 -71.8805 -0.0005 -34.6314 -4.2066 -9.1160 -0.0000 0.0000 -0.0000 -0.0000 0.0000 -0.0000 7.6801 -5.5254 -12.5175 -13.1832 25.1503 80.1085 -0.0003 57.6611 0.0002 3.7848 4.6262 -9.3994 -0.0000 -0.0000 0.0000 -0.0000 -0.0000 0.0000
 11.4013 31.2376 -63.1454 140.4372 -57.8877 149.0500 -33.1331 23.8810 10.2866 31.4308 -0.0000 0.0000 -20.2712 -8.0201 -6.7208 -7.0206 -0.0000 0.0000 -33.2040 10.9773 4.0925 43.0127 -0.0000 0.0000 -33.0882 -5.8378 -5.0269 -11.1304 0.0000 0.0000 -4.3876 -1.9290 -9.8037 8.2565 -1.3547 4.1936 -0.0177 -28.0297 3.6972 22.6255 47.4240 -14.8939 1.8952 18.9683 5.5755 -40.1765 -40.5545 -88.5669 -0.0007 -73.5990 -0.0005 -35.5426 -4.2031 -9.7114 -0.0000 0.0000 -0.0000 -0.0000 0.0000 -0.0000 7.8347 -5.1091 -12.4467 -15.2940 26.5305 81.5441 -0.0004 62.9215 0.0003 3.5829 4.8042 -9.4385 -0.0000 0.0000 -0.0000 -0.0000 0.0000 -0.0000
